{
    "asset" : {
        "generator" : "Khronos glTF Blender I/O v1.2.75",
        "version" : "2.0"
    },
    "scene" : 0,
    "scenes" : [
        {
            "name" : "Scene",
            "nodes" : [
                0,
                1,
                5,
                10,
                11,
                12,
                13,
                14
            ]
        }
    ],
    "nodes" : [
        {
            "name" : "Light",
            "rotation" : [
                0.15982210636138916,
                0.7835114598274231,
                -0.242166206240654,
                0.5494744777679443
            ],
            "translation" : [
                -15.999999046325684,
                -7,
                5
            ]
        },
        {
            "name" : "Camera",
            "rotation" : [
                0.441137433052063,
                0.35713839530944824,
                -0.1970791518688202,
                0.7993808388710022
            ],
            "translation" : [
                19.132156372070312,
                18.75741958618164,
                17.783845901489258
            ]
        },
        {
            "mesh" : 0,
            "name" : "Plane.010",
            "translation" : [
                -2,
                0,
                2
            ]
        },
        {
            "mesh" : 1,
            "name" : "Torus",
            "scale" : [
                1.0700000524520874,
                1.0700000524520874,
                1.0700000524520874
            ]
        },
        {
            "mesh" : 2,
            "name" : "Torus.003",
            "rotation" : [
                0,
                -0.159318208694458,
                0,
                0.9872273802757263
            ]
        },
        {
            "children" : [
                2,
                3,
                4
            ],
            "name" : "Empty"
        },
        {
            "mesh" : 3,
            "name" : "Plane.001",
            "scale" : [
                2.8542428016662598,
                2.8542428016662598,
                2.8542428016662598
            ],
            "translation" : [
                -5.7084856033325195,
                2.911327362060547,
                5.7084856033325195
            ]
        },
        {
            "mesh" : 4,
            "name" : "Torus.001",
            "scale" : [
                2.8542428016662598,
                2.8542428016662598,
                2.8542428016662598
            ],
            "translation" : [
                0,
                2.911327362060547,
                0
            ]
        },
        {
            "mesh" : 5,
            "name" : "Torus.002",
            "rotation" : [
                0,
                0.3569493293762207,
                0,
                0.9341237545013428
            ],
            "scale" : [
                3.075260877609253,
                3.075260877609253,
                3.075260877609253
            ],
            "translation" : [
                0,
                2.854243278503418,
                0
            ]
        },
        {
            "mesh" : 6,
            "name" : "Torus.004",
            "scale" : [
                2.435023546218872,
                2.435023546218872,
                2.435023546218872
            ],
            "translation" : [
                0,
                4.22428035736084,
                0
            ]
        },
        {
            "children" : [
                6,
                7,
                8,
                9
            ],
            "mesh" : 7,
            "name" : "Cube",
            "scale" : [
                0.3503556251525879,
                0.3503556251525879,
                0.3503556251525879
            ],
            "translation" : [
                0,
                3.919999837875366,
                0
            ]
        },
        {
            "mesh" : 8,
            "name" : "Cylinder",
            "scale" : [
                1,
                3.1128079891204834,
                1
            ],
            "translation" : [
                0,
                3,
                0
            ]
        },
        {
            "name" : "Sun",
            "rotation" : [
                -0.3566340208053589,
                0,
                -0.8807257413864136,
                0.3116638660430908
            ]
        },
        {
            "name" : "Camera.001",
            "rotation" : [
                0.5089753866195679,
                0.13112962245941162,
                -0.07879123091697693,
                0.8470779657363892
            ]
        },
        {
            "name" : "Point",
            "scale" : [
                12.544529914855957,
                12.544529914855957,
                12.544529914855957
            ]
        }
    ],
    "meshes" : [
        {
            "name" : "Plane.011",
            "primitives" : [
                {
                    "attributes" : {
                        "POSITION" : 0,
                        "NORMAL" : 1,
                        "TEXCOORD_0" : 2
                    },
                    "indices" : 3
                }
            ]
        },
        {
            "name" : "Torus",
            "primitives" : [
                {
                    "attributes" : {
                        "POSITION" : 4,
                        "NORMAL" : 5,
                        "TEXCOORD_0" : 6
                    },
                    "indices" : 7
                }
            ]
        },
        {
            "name" : "Torus.003",
            "primitives" : [
                {
                    "attributes" : {
                        "POSITION" : 8,
                        "NORMAL" : 9,
                        "TEXCOORD_0" : 10
                    },
                    "indices" : 11
                }
            ]
        },
        {
            "name" : "Plane.001",
            "primitives" : [
                {
                    "attributes" : {
                        "POSITION" : 12,
                        "NORMAL" : 13,
                        "TEXCOORD_0" : 14
                    },
                    "indices" : 3
                }
            ]
        },
        {
            "name" : "Torus.001",
            "primitives" : [
                {
                    "attributes" : {
                        "POSITION" : 15,
                        "NORMAL" : 16,
                        "TEXCOORD_0" : 17
                    },
                    "indices" : 11
                }
            ]
        },
        {
            "name" : "Torus.002",
            "primitives" : [
                {
                    "attributes" : {
                        "POSITION" : 18,
                        "NORMAL" : 19,
                        "TEXCOORD_0" : 20
                    },
                    "indices" : 7
                }
            ]
        },
        {
            "name" : "Torus.004",
            "primitives" : [
                {
                    "attributes" : {
                        "POSITION" : 21,
                        "NORMAL" : 22,
                        "TEXCOORD_0" : 23
                    },
                    "indices" : 11
                }
            ]
        },
        {
            "name" : "Cube",
            "primitives" : [
                {
                    "attributes" : {
                        "POSITION" : 24,
                        "NORMAL" : 25,
                        "TEXCOORD_0" : 26
                    },
                    "indices" : 27
                }
            ]
        },
        {
            "name" : "Cylinder",
            "primitives" : [
                {
                    "attributes" : {
                        "POSITION" : 28,
                        "NORMAL" : 29,
                        "TEXCOORD_0" : 30
                    },
                    "indices" : 31
                }
            ]
        }
    ],
    "accessors" : [
        {
            "bufferView" : 0,
            "componentType" : 5126,
            "count" : 105,
            "max" : [
                5,
                0,
                1
            ],
            "min" : [
                -1,
                0,
                -5
            ],
            "type" : "VEC3"
        },
        {
            "bufferView" : 1,
            "componentType" : 5126,
            "count" : 105,
            "type" : "VEC3"
        },
        {
            "bufferView" : 2,
            "componentType" : 5126,
            "count" : 105,
            "type" : "VEC2"
        },
        {
            "bufferView" : 3,
            "componentType" : 5123,
            "count" : 222,
            "type" : "SCALAR"
        },
        {
            "bufferView" : 4,
            "componentType" : 5126,
            "count" : 2304,
            "max" : [
                3.309999942779541,
                0.07999999821186066,
                3.309999942779541
            ],
            "min" : [
                -3.309999942779541,
                -0.07999999821186066,
                -3.309999942779541
            ],
            "type" : "VEC3"
        },
        {
            "bufferView" : 5,
            "componentType" : 5126,
            "count" : 2304,
            "type" : "VEC3"
        },
        {
            "bufferView" : 6,
            "componentType" : 5126,
            "count" : 2304,
            "type" : "VEC2"
        },
        {
            "bufferView" : 7,
            "componentType" : 5123,
            "count" : 3456,
            "type" : "SCALAR"
        },
        {
            "bufferView" : 8,
            "componentType" : 5126,
            "count" : 2304,
            "max" : [
                1.0499999523162842,
                0.030000001192092896,
                1.0499999523162842
            ],
            "min" : [
                -1.0499999523162842,
                -0.030000001192092896,
                -1.0499999523162842
            ],
            "type" : "VEC3"
        },
        {
            "bufferView" : 9,
            "componentType" : 5126,
            "count" : 2304,
            "type" : "VEC3"
        },
        {
            "bufferView" : 10,
            "componentType" : 5126,
            "count" : 2304,
            "type" : "VEC2"
        },
        {
            "bufferView" : 11,
            "componentType" : 5123,
            "count" : 3456,
            "type" : "SCALAR"
        },
        {
            "bufferView" : 12,
            "componentType" : 5126,
            "count" : 105,
            "max" : [
                5,
                0,
                1
            ],
            "min" : [
                -1,
                0,
                -5
            ],
            "type" : "VEC3"
        },
        {
            "bufferView" : 13,
            "componentType" : 5126,
            "count" : 105,
            "type" : "VEC3"
        },
        {
            "bufferView" : 14,
            "componentType" : 5126,
            "count" : 105,
            "type" : "VEC2"
        },
        {
            "bufferView" : 15,
            "componentType" : 5126,
            "count" : 2304,
            "max" : [
                1.0499999523162842,
                0.030000001192092896,
                1.0499999523162842
            ],
            "min" : [
                -1.0499999523162842,
                -0.030000001192092896,
                -1.0499999523162842
            ],
            "type" : "VEC3"
        },
        {
            "bufferView" : 16,
            "componentType" : 5126,
            "count" : 2304,
            "type" : "VEC3"
        },
        {
            "bufferView" : 17,
            "componentType" : 5126,
            "count" : 2304,
            "type" : "VEC2"
        },
        {
            "bufferView" : 18,
            "componentType" : 5126,
            "count" : 2304,
            "max" : [
                3.309999942779541,
                0.07999999821186066,
                3.309999942779541
            ],
            "min" : [
                -3.309999942779541,
                -0.07999999821186066,
                -3.309999942779541
            ],
            "type" : "VEC3"
        },
        {
            "bufferView" : 19,
            "componentType" : 5126,
            "count" : 2304,
            "type" : "VEC3"
        },
        {
            "bufferView" : 20,
            "componentType" : 5126,
            "count" : 2304,
            "type" : "VEC2"
        },
        {
            "bufferView" : 21,
            "componentType" : 5126,
            "count" : 2304,
            "max" : [
                1.0499999523162842,
                0.030000001192092896,
                1.0499999523162842
            ],
            "min" : [
                -1.0499999523162842,
                -0.030000001192092896,
                -1.0499999523162842
            ],
            "type" : "VEC3"
        },
        {
            "bufferView" : 22,
            "componentType" : 5126,
            "count" : 2304,
            "type" : "VEC3"
        },
        {
            "bufferView" : 23,
            "componentType" : 5126,
            "count" : 2304,
            "type" : "VEC2"
        },
        {
            "bufferView" : 24,
            "componentType" : 5126,
            "count" : 24,
            "max" : [
                1,
                1,
                1
            ],
            "min" : [
                -1,
                -1,
                -1
            ],
            "type" : "VEC3"
        },
        {
            "bufferView" : 25,
            "componentType" : 5126,
            "count" : 24,
            "type" : "VEC3"
        },
        {
            "bufferView" : 26,
            "componentType" : 5126,
            "count" : 24,
            "type" : "VEC2"
        },
        {
            "bufferView" : 27,
            "componentType" : 5123,
            "count" : 36,
            "type" : "SCALAR"
        },
        {
            "bufferView" : 28,
            "componentType" : 5126,
            "count" : 327,
            "max" : [
                0.931374192237854,
                0.6681749820709229,
                0.9313740730285645
            ],
            "min" : [
                -0.931374192237854,
                -1,
                -0.931374192237854
            ],
            "type" : "VEC3"
        },
        {
            "bufferView" : 29,
            "componentType" : 5126,
            "count" : 327,
            "type" : "VEC3"
        },
        {
            "bufferView" : 30,
            "componentType" : 5126,
            "count" : 327,
            "type" : "VEC2"
        },
        {
            "bufferView" : 31,
            "componentType" : 5123,
            "count" : 1428,
            "type" : "SCALAR"
        }
    ],
    "bufferViews" : [
        {
            "buffer" : 0,
            "byteLength" : 1260,
            "byteOffset" : 0
        },
        {
            "buffer" : 0,
            "byteLength" : 1260,
            "byteOffset" : 1260
        },
        {
            "buffer" : 0,
            "byteLength" : 840,
            "byteOffset" : 2520
        },
        {
            "buffer" : 0,
            "byteLength" : 444,
            "byteOffset" : 3360
        },
        {
            "buffer" : 0,
            "byteLength" : 27648,
            "byteOffset" : 3804
        },
        {
            "buffer" : 0,
            "byteLength" : 27648,
            "byteOffset" : 31452
        },
        {
            "buffer" : 0,
            "byteLength" : 18432,
            "byteOffset" : 59100
        },
        {
            "buffer" : 0,
            "byteLength" : 6912,
            "byteOffset" : 77532
        },
        {
            "buffer" : 0,
            "byteLength" : 27648,
            "byteOffset" : 84444
        },
        {
            "buffer" : 0,
            "byteLength" : 27648,
            "byteOffset" : 112092
        },
        {
            "buffer" : 0,
            "byteLength" : 18432,
            "byteOffset" : 139740
        },
        {
            "buffer" : 0,
            "byteLength" : 6912,
            "byteOffset" : 158172
        },
        {
            "buffer" : 0,
            "byteLength" : 1260,
            "byteOffset" : 165084
        },
        {
            "buffer" : 0,
            "byteLength" : 1260,
            "byteOffset" : 166344
        },
        {
            "buffer" : 0,
            "byteLength" : 840,
            "byteOffset" : 167604
        },
        {
            "buffer" : 0,
            "byteLength" : 27648,
            "byteOffset" : 168444
        },
        {
            "buffer" : 0,
            "byteLength" : 27648,
            "byteOffset" : 196092
        },
        {
            "buffer" : 0,
            "byteLength" : 18432,
            "byteOffset" : 223740
        },
        {
            "buffer" : 0,
            "byteLength" : 27648,
            "byteOffset" : 242172
        },
        {
            "buffer" : 0,
            "byteLength" : 27648,
            "byteOffset" : 269820
        },
        {
            "buffer" : 0,
            "byteLength" : 18432,
            "byteOffset" : 297468
        },
        {
            "buffer" : 0,
            "byteLength" : 27648,
            "byteOffset" : 315900
        },
        {
            "buffer" : 0,
            "byteLength" : 27648,
            "byteOffset" : 343548
        },
        {
            "buffer" : 0,
            "byteLength" : 18432,
            "byteOffset" : 371196
        },
        {
            "buffer" : 0,
            "byteLength" : 288,
            "byteOffset" : 389628
        },
        {
            "buffer" : 0,
            "byteLength" : 288,
            "byteOffset" : 389916
        },
        {
            "buffer" : 0,
            "byteLength" : 192,
            "byteOffset" : 390204
        },
        {
            "buffer" : 0,
            "byteLength" : 72,
            "byteOffset" : 390396
        },
        {
            "buffer" : 0,
            "byteLength" : 3924,
            "byteOffset" : 390468
        },
        {
            "buffer" : 0,
            "byteLength" : 3924,
            "byteOffset" : 394392
        },
        {
            "buffer" : 0,
            "byteLength" : 2616,
            "byteOffset" : 398316
        },
        {
            "buffer" : 0,
            "byteLength" : 2856,
            "byteOffset" : 400932
        }
    ],
    "buffers" : [
        {
            "byteLength" : 403788,
            "uri" : "data:application/octet-stream;base64,"
        }
    ]
}
