<svg xmlns="http://www.w3.org/2000/svg" viewBox="0 0 72.4 80.64" overflow="visible">
  <style>
    .st3{fill:#1d1100}.st6{fill:#fff}
  </style>
  <g id="XMLID_1_">
    <path d="M72.15 48.09v7.62a9.29 9.29 0 01-4.65 8.05L40.85 79.15a9.306 9.306 0 01-9.3 0l-6.51-3.76c.01 0 .03-.01.04-.02l17.67-10.2a16.03 16.03 0 004.63-4.02c2.01-.29 3.97-.95 5.79-2l17.68-10.21c.45-.26.88-.54 1.3-.85z" fill="#2f5627"/>
    <path d="M72.15 33.31v14.78c-.42.31-.85.59-1.3.85L53.17 59.15a16.173 16.173 0 01-5.79 2c2.2-2.8 3.44-6.3 3.44-9.97V30.77c0-3.95-1.44-7.69-3.95-10.58 2.18.24 4.33.92 6.3 2.06l17.68 10.21c.45.26.88.54 1.3.85z" fill="#263707"/>
    <path d="M72.15 24.94v8.37c-.42-.31-.85-.59-1.3-.85L53.17 22.25a16.077 16.077 0 00-6.3-2.06 15.991 15.991 0 00-4.12-3.4L25.08 6.58c-.4-.23-.81-.45-1.23-.64l7.7-4.44a9.306 9.306 0 019.3 0L67.5 16.88a9.318 9.318 0 014.65 8.06z" fill="#cca42c"/>
    <path class="st3" d="M50.82 30.77v20.41c0 3.67-1.24 7.17-3.44 9.97-3.52.5-7.18-.17-10.36-2L19.35 48.94a15.972 15.972 0 01-7-8.24c1.28-3.42 3.73-6.36 7-8.24l17.67-10.21a16.21 16.21 0 019.85-2.06c2.51 2.89 3.95 6.63 3.95 10.58z"/>
    <path d="M46.87 20.19c-3.37-.37-6.82.32-9.85 2.06L19.35 32.46a15.972 15.972 0 00-7 8.24c-.7-1.81-1.07-3.75-1.07-5.74V14.55c0-.47.02-.93.07-1.39l12.5-7.22c.42.19.83.41 1.23.64l17.67 10.21c1.58.91 2.96 2.06 4.12 3.4z" fill="#9b3301"/>
    <path class="st3" d="M37.02 59.15c3.18 1.83 6.84 2.5 10.36 2a16.03 16.03 0 01-4.63 4.02l-17.67 10.2c-.01.01-.03.02-.04.02L11.3 67.46c-.02-.2-.02-.41-.02-.61V46.44c0-1.99.37-3.93 1.07-5.74 1.28 3.42 3.73 6.36 7 8.24l17.67 10.21z"/>
    <path d="M4.9 16.88l6.45-3.72c-.05.46-.07.92-.07 1.39v20.41c0 1.99.37 3.93 1.07 5.74-.7 1.81-1.07 3.75-1.07 5.74v20.41c0 .2 0 .41.02.61l-6.4-3.7a9.31 9.31 0 01-4.65-8.05V24.94a9.34 9.34 0 014.65-8.06z" fill="#c24f06"/>
  </g>
  <path class="st6" d="M41.11 36.31c8.55 1.33 14.75 2.48 18.62 3.45 1.97.46 3.25 1.12 3.85 1.97s.63 2.32.1 4.41c-.53 2.09-1.22 3.43-2.07 4.03s-2.37.62-4.55.06l-19.82-4.84 6.84 9.76c.56.8.95 1.4 1.15 1.8.21.4.35.95.44 1.63.16 1.23-.82 2.59-2.96 4.09-2.34 1.64-4.15 1.96-5.44.98-.57-.39-1.27-1.17-2.09-2.34L15.67 33.47c-.54-.77-.92-1.36-1.14-1.78-.22-.42-.37-.97-.45-1.66-.17-1.23.82-2.59 2.96-4.09 2.34-1.64 4.15-1.99 5.45-1.06.56.45 1.26 1.26 2.07 2.43l6.7 9.56c.96-8.29 1.69-15.05 2.2-20.29.21-2.19.75-3.58 1.61-4.19.87-.61 2.37-.81 4.51-.59 2.14.22 3.51.75 4.11 1.6.6.85.8 2.21.62 4.08-.37 3.59-1.22 8.77-2.55 15.53l-.65 3.3zM15.12 59.33c1.33.73 2.71.88 4.14.43s2.46-1.34 3.08-2.67c.62-1.34.74-2.64.35-3.89-.39-1.26-1.21-2.28-2.45-3.09-1.25-.8-2.64-.96-4.19-.48-1.55.48-2.62 1.4-3.22 2.75-.6 1.35-.7 2.66-.3 3.94.4 1.27 1.26 2.28 2.59 3.01z"/>
</svg>