<svg xmlns="http://www.w3.org/2000/svg" viewBox="0 0 103.79 94.01" overflow="visible">
  <style>
    .st3{fill:#111}.st4{fill:#fff}
  </style>
  <path d="M48.24 53.76l-2.74 21.1c-.25 1.95.55 3.89 2.12 5.09l16.91 12.93a5.485 5.485 0 005.46.71l19.65-8.18a5.534 5.534 0 003.35-4.38l2.74-21.1c.25-1.95-.55-3.89-2.12-5.09L76.7 41.91a5.485 5.485 0 00-5.46-.71l-19.65 8.18a5.5 5.5 0 00-3.35 4.38z" fill="#cca42c"/>
  <path d="M31.29 12.98l-2.74 21.1c-.25 1.95.55 3.89 2.12 5.09L47.58 52.1a5.485 5.485 0 005.46.71l19.65-8.18a5.534 5.534 0 003.35-4.38l2.74-21.1c.25-1.95-.55-3.89-2.12-5.09L59.75 1.13a5.485 5.485 0 00-5.46-.71L34.64 8.6a5.534 5.534 0 00-3.35 4.38z" fill="#2f5627"/>
  <path d="M3.41 48.48L.67 69.58c-.25 1.95.55 3.89 2.12 5.09L19.7 87.6a5.485 5.485 0 005.46.71l19.65-8.18a5.534 5.534 0 003.35-4.38l2.74-21.1c.25-1.95-.55-3.89-2.12-5.09L31.87 36.63a5.485 5.485 0 00-5.46-.71L6.76 44.1a5.534 5.534 0 00-3.35 4.38z" fill="#c24f06"/>
  <g id="XMLID_2_">
    <path class="st3" d="M94.2 23.8c.64 0 1.27-.1 1.9-.11.41 0 .82.08 1.23.1.32.01.65-.01.97-.06.38-.05.7-.31 1.14-.14.31.12.74-.02 1.03.12.38.18.6.02.88-.13.11-.06.26-.07.39-.05.26.03.52.14.78.14.48 0 .57.04.56.52-.02 1.13-.05 2.26-.06 3.39-.01.5.03.99.05 1.49.02.3.02.59.04.89.03.38.2.82.07 1.13-.27.62.13 1.24-.16 1.83.23.3-.02.61 0 .91.02.29.11.62.28.84.21.27.16.36-.08.43.08.35.18.69.22 1.03.02.2-.05.4-.06.6-.01.2-.02.4.01.59.02.14.09.27.14.4v.58c-.05.25-.07.51-.17.74-.16.35-.15.67-.03 1.04.07.22.21.55-.11.76-.04.02-.05.1-.05.15-.03.41-.07.81-.06 1.21.01.36-.41.74.04 1.08 0 .02-.07.12-.08.18-.03.19-.05.39-.07.58-.01.13 0 .25 0 .37-.04.01-.07.01-.11.01.1.12.19.24.31.39-.09.03-.18.04-.19.07-.1.24-.28.51-.24.73.07.39.04.74-.09 1.11-.08.22-.1.5-.04.72.1.36.08.69-.03 1.03.09.08.17.16.19.17-.07.21-.14.35-.15.49-.04.27-.05.54-.06.81 0 .13-.04.29.02.39.14.22.33.41.52.65-.41.48-1.07.44-1.66.53-.4.06-.81.03-1.21.01-.53-.03-1.05.09-1.59-.17a.92.92 0 00-.38-.07l.43-2.22c.43.03.5-.05.42-.49-.21-1.1-.43-2.21-.64-3.31-.06-.31-.06-.63-.1-.95-.02-.19-.04-.38-.08-.57-.16-.91-.35-1.81-.48-2.73-.22-1.55-.4-3.1-.58-4.66-.08-.64-.36-1.25-.31-1.93.03-.34-.08-.7-.14-1.05-.08-.57-.16-1.15-.26-1.72-.03-.16-.17-.29-.25-.44-.06-.1-.09-.22-.13-.32.09-.04.18-.07.28-.11-.08-.72-.16-1.44-.27-2.16-.02-.19.08-.46-.22-.56-.02-.01 0-.18.02-.27.02-.14.09-.29.08-.43-.03-.35-.09-.7-.15-1.09-.26 0-.51-.04-.74.01-.35.08-.72.05-1.08.03l.11-2.51zM93.65 41.06c.03.23-.1.35-.31.37-.63.03-1.25.06-1.88.07-.28 0-.32-.22-.29-.45.1-.81.26-1.61.3-2.42.07-1.51.7-2.85 1.12-4.25.04 0 .08-.01.12-.01.07.28.16.55.2.82.23 1.67.44 3.33.66 5 .04.29.06.58.08.87z"/>
    <path class="st4" d="M90.3 47.54c.04.13.11.28.12.42.01.82.01.83-.81.8-.91-.03-1.83-.09-2.74-.12-.35-.01-.7.03-1.05.06-.33.03-.42-.1-.37-.43.4-2.92.79-5.83 1.16-8.75.17-1.3.26-2.62.47-3.91.18-1.19.5-2.35.71-3.53.09-.53.06-1.07.08-1.61.05-1.23.09-2.46.15-3.68.01-.17.05-.35.13-.49.06-.09.22-.18.33-.18 1.16.06 2.31.14 3.47.23.18.01.36.1.54.2.14-.04.18-.48.49-.12.36-.15.73-.14 1.11-.12.36.02.73.05 1.08-.03.23-.05.48-.01.74-.01.06.39.12.74.15 1.09.01.14-.06.29-.08.43-.02.09-.04.26-.02.27.3.1.2.37.22.56.11.72.19 1.44.27 2.16-.1.04-.19.07-.28.11.04.1.07.22.13.32.08.15.22.28.25.44.1.57.18 1.15.26 1.72.06.35.17.71.14 1.05-.05.68.23 1.29.31 1.93.18 1.56.36 3.11.58 4.66.13.92.32 1.82.48 2.73.04.19.06.38.08.57.04.32.04.64.1.95.21 1.1.43 2.21.64 3.31.08.44.01.52-.42.49-.35-.03-.69-.11-1.02-.25-.07.05-.15.13-.22.13-.74-.02-1.48-.08-2.22-.09-.82-.02-.84-.02-.97-.82-.02-.09-.03-.17-.04-.25.12-.02.23-.04.33-.05-.1-.14-.19-.27-.3-.41.12-.04.25-.09.39-.13v-.08l-.37-.06c-.09-.54-.19-1.08-.26-1.63-.03-.21-.11-.3-.32-.3-.88-.02-1.75-.06-2.63-.06-.14 0-.28.09-.43.15.26.59-.22.67-.66.82.33.2.47.42.41.74-.05.26-.08.52-.11.77zm3.04-6.11c.21-.02.34-.14.31-.37-.02-.29-.04-.58-.08-.87-.22-1.67-.43-3.33-.66-5-.04-.27-.13-.54-.2-.82-.04 0-.08.01-.12.01-.42 1.4-1.05 2.74-1.12 4.25-.04.81-.2 1.61-.3 2.42-.03.23.01.45.29.45.63-.01 1.25-.04 1.88-.07z"/>
    <path class="st3" d="M76.38 35.81c-.2.07-.41.13-.62.17-.31.06-.62.11-.93.13-.05 0-.15-.16-.16-.25-.13-1.12-.28-2.24-.37-3.37-.08-1.04-.09-2.09-.15-3.13-.03-.42.23-.61.66-.66.51-.06 1-.01 1.46.16.37.13.7.36 1.05.54.12.07.23.13.3.17 0 .17-.05.34.01.47.27.59.26 1.22.3 1.85.04.86-.06 1.69-.23 2.52-.05.18-.12.37-.18.55-.17.57-.68.68-1.14.85z"/>
    <path class="st4" d="M76.27 28.86c-.46-.17-.95-.22-1.46-.16-.43.05-.69.24-.66.66.06 1.04.07 2.09.15 3.13.09 1.13.24 2.25.37 3.37.01.09.11.25.16.25.31-.02.62-.07.93-.13.21-.04.42-.1.62-.17.46-.17.97-.28 1.14-.85.06-.18.13-.37.18-.55.17-.83.27-1.66.23-2.52-.04-.63-.03-1.26-.3-1.85-.06-.13-.01-.3-.01-.47-.07-.04-.18-.1-.3-.17-.35-.18-.68-.41-1.05-.54zm-6.04 19.62c-.13-.04-.27-.27-.28-.43-.05-.72-.05-1.45-.07-2.18-.01-.5 0-1.01-.02-1.52-.03-.68-.18-1.37-.11-2.04.15-1.33.02-2.66.08-3.99.06-1.34-.08-2.7-.15-4.05-.03-.69-.09-1.37-.13-2.05.12.04.22.09.35.14 0-.09.01-.12 0-.13-.7-.47-.48-1.22-.52-1.85-.08-1.1-.06-2.22-.07-3.32 0-.25 0-.53.1-.75.18-.37.58-.34.93-.36.95-.07 1.9-.14 2.86-.17.47-.02.95.02 1.42.05.32.02.63.05.94.09.75.08 1.49.16 2.24.25.23.03.45.09.69.1.9.08 1.52.65 2.16 1.19.43.37.69.85.72 1.41.09 1.43.14 2.87.23 4.3.09 1.33-.19 2.61-.45 3.89-.1.47-.32.9-.88 1.07-.97.29-1.92.68-2.91.92-.6.15-1.24.1-1.87.14-.04 0-.09.01-.11-.01-.44-.35-.56.1-.77.31-.05.04-.06.15-.04.22.05.33.16.66.17.99.02 1.57 0 3.14.01 4.71 0 .09.01.19.04.28.17.75.17 1.5.06 2.25-.01.1-.12.25-.21.27-.51.09-1.02.19-1.54.23-.7.06-1.4.08-2.1.1-.26.01-.53.02-.77-.06zM63.22 46.57c.68.25.62.17.6.8-.01.73-.06 1.46-.05 2.19.01.26.05.53-.2.64-.29.13-.62.21-.94.23-.68.04-1.37.03-2.05.03-.52-.01-1.04-.04-1.55-.06-.26-.01-.51-.02-.77-.02-.93 0-1.85.01-2.78 0-.43 0-.5-.09-.51-.52-.03-1.44-.08-2.89-.11-4.34-.01-.23.03-.46.04-.58 0-1.83-.02-3.56 0-5.28.02-1 .11-2.01.14-3.01.02-.54-.02-1.07-.01-1.6.04-1.29.09-2.58.13-3.87.01-.14-.02-.27-.03-.4-.04-.79-.07-1.57-.1-2.36-.01-.27.14-.39.41-.38.4.03.8.07 1.21.08.86.03 1.72.06 2.58.07.31.01.47.06.44.44-.1.93-.15 1.87-.2 2.8-.01.19.04.39.04.58-.04 2.03-.1 4.06-.13 6.09-.01 1.01.05 2.03.07 3.04 0 .42-.02.85-.02 1.27 0 1.08.01 2.16.01 3.23 0 .75.4 1.04 1.13.93.43-.07.88.01 1.33.02.28 0 .57-.01.86-.01.16-.01.33-.06.46-.01zM42.25 28.1l3.57.09c.3.01.38.16.35.45-.08.91-.15 1.82-.19 2.73-.02.41.06.83.05 1.24-.02 1.23-.08 2.45-.11 3.68-.02.98-.03 1.96-.03 2.95.01.58.06 1.17.06 1.76 0 1.01-.04 2.02-.04 3.03 0 .64.02 1.27.05 1.9.02.44.45.71.96.67.49-.03.98-.01 1.47-.01.29-.01.58-.01.87-.01.16-.01.34-.05.49-.01.34.11.64.19.58.72-.09.85-.01 1.72-.06 2.58-.01.15-.24.39-.41.43-.33.08-.68.05-1.03.07-.55.02-1.11.07-1.66.08-.56 0-1.11-.04-1.67-.05-.24-.01-.48-.02-.72-.02-.94 0-1.88.01-2.82 0-.31 0-.47-.11-.48-.48-.02-1.46-.1-2.92-.12-4.38-.02-1.1.02-2.21.04-3.32.02-1.27.06-2.55.08-3.82.02-1.14.01-2.27.03-3.41.02-.76.09-1.53.09-2.3 0-.84-.05-1.68-.08-2.53-.01-.58-.02-1.16-.01-1.74.01-.24.14-.38.41-.36.11.01.22.01.33.01v.05z"/>
    <path class="st3" d="M69.38 30.38c.04.63-.18 1.38.52 1.85.01.01 0 .04 0 .13-.13-.05-.23-.1-.35-.14.04.68.1 1.36.13 2.05.07 1.35.21 2.71.15 4.05-.06 1.33.07 2.66-.08 3.99-.07.67.08 1.36.11 2.04.02.51.01 1.02.02 1.52.02.73.02 1.46.07 2.18.01.16.15.39.28.43.24.08.51.07.77.06.7-.02 1.4-.04 2.1-.1.52-.04 1.03-.14 1.54-.23.09-.02.2-.17.21-.27.11-.75.11-1.5-.06-2.25a.903.903 0 01-.04-.28c-.01-1.57.01-3.14-.01-4.71-.01-.33-.12-.66-.17-.99-.02-.07-.01-.18.04-.22.21-.21.33-.66.77-.31.02.02.07.01.11.01.63-.04 1.27.01 1.87-.14.99-.24 1.94-.63 2.91-.92.56-.17.78-.6.88-1.07.26-1.28.54-2.56.45-3.89-.09-1.43-.14-2.87-.23-4.3-.03-.56-.29-1.04-.72-1.41-.64-.54-1.26-1.11-2.16-1.19-.24-.01-.46-.07-.69-.1-.75-.09-1.49-.17-2.24-.25-.31-.04-.62-.07-.94-.09-.47-.03-.95-.07-1.42-.05-.96.03-1.91.1-2.86.17-.35.02-.75-.01-.93.36-.1.22-.1.5-.1.75.01 1.1-.01 2.22.07 3.32zm-8.81 16.19c-.73.11-1.13-.18-1.13-.93 0-1.07-.01-2.15-.01-3.23 0-.42.02-.85.02-1.27-.02-1.01-.08-2.03-.07-3.04.03-2.03.09-4.06.13-6.09 0-.19-.05-.39-.04-.58.05-.93.1-1.87.2-2.8.03-.38-.13-.43-.44-.44-.86-.01-1.72-.04-2.58-.07-.41-.01-.81-.05-1.21-.08-.27-.01-.42.11-.41.38.03.79.06 1.57.1 2.36.01.13.04.26.03.4-.04 1.29-.09 2.58-.13 3.87-.01.53.03 1.06.01 1.6-.03 1-.12 2.01-.14 3.01-.02 1.72 0 3.45 0 5.28-.01.12-.05.35-.04.58.03 1.45.08 2.9.11 4.34.01.43.08.52.51.52.93.01 1.85 0 2.78 0 .26 0 .51.01.77.02.51.02 1.03.05 1.55.06.68 0 1.37.01 2.05-.03.32-.02.65-.1.94-.23.25-.11.21-.38.2-.64-.01-.73.04-1.46.05-2.19.02-.63.08-.55-.6-.8-.13-.05-.3 0-.46.01-.29 0-.58.01-.86.01-.45-.01-.9-.09-1.33-.02zm-12.18.02c-.49 0-.98-.02-1.47.01-.51.04-.94-.23-.96-.67-.03-.63-.05-1.26-.05-1.9 0-1.01.04-2.02.04-3.03 0-.59-.05-1.18-.06-1.76 0-.99.01-1.97.03-2.95.03-1.23.09-2.45.11-3.68.01-.41-.07-.83-.05-1.24.04-.91.11-1.82.19-2.73.03-.29-.05-.44-.35-.45l-3.57-.09v-.05c-.11 0-.22 0-.33-.01-.27-.02-.4.12-.41.36-.01.58 0 1.16.01 1.74.03.85.08 1.69.08 2.53 0 .77-.07 1.54-.09 2.3-.02 1.14-.01 2.27-.03 3.41-.02 1.27-.06 2.55-.08 3.82-.02 1.11-.06 2.22-.04 3.32.02 1.46.1 2.92.12 4.38.01.37.17.48.48.48.94.01 1.88 0 2.82 0 .24 0 .48.01.72.02.56.01 1.11.05 1.67.05.55-.01 1.11-.06 1.66-.08.35-.02.7.01 1.03-.07.17-.04.4-.28.41-.43.05-.86-.03-1.73.06-2.58.06-.53-.24-.61-.58-.72-.15-.04-.33 0-.49.01-.29 0-.58 0-.87.01zm-13.45 2.47c.27.03.38-.11.32-.38-.22-1.14-.45-2.28-.67-3.42-.03-.19-.07-.39-.1-.58-.09-.7-.17-1.39-.26-2.09-.2-1.37-.41-2.74-.61-4.11-.13-.89-.26-1.77-.37-2.66-.05-.46-.23-.89-.19-1.38.04-.53-.01-1.09-.15-1.6-.17-.58-.04-1.28-.59-1.74-.05-.04-.03-.17-.04-.28.12.01.2.02.29.03-.05-.4-.06-.78-.15-1.14-.14-.56.05-1.19-.35-1.7-.03-.03-.02-.13 0-.18.26-.53-.07-1.03-.03-1.53-.38 0-.75 0-1.11-.01l.02-2.5c.68 0 1.36-.06 2.03-.1.12 0 .24.01.37.02.33.01.67.07 1 .02.4-.05.77-.29 1.22-.14.32.11.7.02 1.01.13.33.11.54.04.82-.1.19-.1.45-.09.68-.06.24.03.46.03.72.01.78-.08 1.58-.02 2.37-.02.59.01 1.18-.02 1.77 0 .65.03 1.32-.35 1.96.05.05.03.14.07.16.05.32-.26.64-.06.93.03.4.13.77.33 1.15.49.09.03.26.07.27.04.14-.25.33-.13.5-.09.23.05.46.09.7.13 0-.04.01-.07.02-.1.19.19.79.28 1.04.09.24-.18.48-.2.77-.16.35.06.7.08 1.05.1.13 0 .32-.25.34.03.49 0 .32-.39.39-.64.52 0 1.02-.02 1.52 0 1.27.06 2.54.13 3.81-.09.21-.03.44.08.65.12.15.03.33.12.44.07.5-.25.89.01 1.31.2.29.14.63.36.89.3.28-.07.51-.05.77 0 .17.03.35.03.6.05 0 0 .03.08.07.08.32-.02.64-.06.96-.1.13-.02.26-.09.39-.11.66-.12 1.32.16 1.99.04.02 0 .05.07.09.09.09.06.2.12.28.17.05-.35.18-.66.12-.94-.1-.53.11-1.03.05-1.54-.01-.15 0-.31 0-.56.71.02 1.37.05 2.03.07.35 0 .74-.11 1.03.02.49.22.9-.07 1.35-.06.43.01.88-.05 1.32-.08.14-.01.28-.03.44-.04.2.41 1.53.28 2.38-.27.41.26.81.21 1.23.03.39.35 1.09.16 1.26-.35h.07c0 .14-.01.28-.02.39.35.02.71.05 1.08.06.48.02.96.04 1.43.05.42.01.88-.11 1.24.04.7.28 1.38.23 2.04.03.47-.15.79.06 1.14.19-.02.14-.08.27-.05.36.19.53.11 1.04-.04 1.55-.09.34.1.59.45.54.27-.04.55-.15.8-.08.61.15 1.21.03 1.78-.13.25-.08.49-.12.71-.05.45.16.84-.16 1.32-.03.57.16 1.21.08 1.81.09.08 0 .15-.12.17-.14.5.05.96.08 1.42.12.55.05 1.1.14 1.65.14l-.11 2.51c-.38-.02-.75-.03-1.11.12-.31-.36-.35.08-.49.12-.18-.1-.36-.19-.54-.2-1.16-.09-2.31-.17-3.47-.23-.11 0-.27.09-.33.18-.08.14-.12.32-.13.49-.06 1.22-.1 2.45-.15 3.68-.02.54.01 1.08-.08 1.61-.21 1.18-.53 2.34-.71 3.53-.21 1.29-.3 2.61-.47 3.91-.37 2.92-.76 5.83-1.16 8.75-.05.33.04.46.37.43.35-.03.7-.07 1.05-.06.91.03 1.83.09 2.74.12.82.03.82.02.81-.8-.01-.14-.08-.29-.12-.42.03-.25.06-.51.11-.77.06-.32-.08-.54-.41-.74.44-.15.92-.23.66-.82.15-.06.29-.15.43-.15.88 0 1.75.04 2.63.06.21 0 .29.09.32.3.07.55.17 1.09.26 1.63l.37.06v.08c-.14.04-.27.09-.39.13.11.14.2.27.3.41-.1.01-.21.03-.33.05.01.08.02.16.04.25.13.8.15.8.97.82.74.01 1.48.07 2.22.09.07 0 .15-.08.22-.13.33.14.67.22 1.02.25l-.43 2.22c-.27 0-.57.07-.84.12-.41.09-.88.08-1.32.13-.25.02-.44-.05-.6-.29-.06-.09-.34-.09-.5-.06-.11.03-.19.18-.29.28-.44.47-1.53.71-2.14.49-.16-.06-.35-.01-.52.01-.35.04-.69.14-1.03.14-.41 0-.81-.08-1.22-.13-1.42-.18-2.84.04-4.26.04-.6.01-1.2.01-1.8.01-.16-.86-.27-.91-1.11-.61-.16.06-.36-.02-.54-.04-.04-.01-.09-.04-.13-.04-.46.08-.9.25-1.4 0-.24-.12-.59-.02-.88-.02.11-.39.24-.78.32-1.18.14-.67-.36-1.16-.99-.98-.17.05-.35.13-.47.26-.64.69-1.27 1.39-1.88 2.12-.15.18-.26.21-.48.16-.27-.06-.6-.13-.83-.03-.33.13-.65.09-.98.12-.46.03-.92.08-1.39.12-.36.02-.77.16-1.09.05-.46-.16-.88-.06-1.31-.02-.23.01-.31 0-.3-.24-.62.33-1.24.21-1.86.14-.36-.04-.72-.05-1.07-.07-.07 0-.14.02-.2.01-.28-.04-.57-.09-.89-.15 0 .59.02 1.09-.01 1.58-.01.16-.14.37-.27.44-.19.1-.44.1-.66.12-.12.01-.32.01-.37-.06-.23-.35-.49-.08-.75-.08-.36-.02-.69.21-1.09.05-.37-.15-.81-.13-1.22-.14-.22-.01-.44.1-.66.1-.61-.01-1.22-.06-1.83-.05-.33 0-.68.16-1 .12-.3-.04-.53.04-.76.18h-.15c.02-.07.03-.13.04-.22-.26 0-.53-.07-.74.01-.3.12-.67-.12-.91.21h-.07c-.19-.06-.37-.14-.57-.17-.14-.02-.34.1-.44.03-.6-.41-1.28-.21-1.92-.31-.04 0-.09 0-.11.02-.24.3-.62.16-.92.29-.11.04-.34.01-.39-.06-.21-.3-.47-.15-.71-.11-.5.09-.99.37-1.53.03-.15-.1-.43-.14-.58-.07-.45.22-.91.07-1.36.09-.4.02-.81-.04-1.21-.03-.46.01-.92.06-1.38.11-.13.02-.24.12-.36.18h-.37c0-.07-.01-.13-.01-.13-.23-.02-.42-.07-.61-.05-.29.03-.56.12-.84.18h-.29c-.15-.05-.32-.17-.45-.14-.29.07-.53-.03-.8-.08-.54-.09-1.09-.14-1.64-.16-.36-.02-.73.03-1.06.05v-2.08h-.92l-2.14.06c-.07 0-.19.01-.21-.03-.1-.16-.23-.2-.37-.2l.29-2.24z"/>
    <path class="st4" d="M26.14 48.77c-1.01-.04-2.02-.09-3.03-.12-.41-.01-.82.03-1.23.05-.31.02-.38-.12-.34-.4.19-1.47.37-2.95.57-4.42.17-1.29.37-2.57.53-3.87.18-1.46.33-2.92.52-4.38.05-.41.21-.81.29-1.21.13-.68.25-1.37.34-2.05.17-1.45.3-2.9.26-4.37-.02-.48.05-.97.11-1.45.04-.31.16-.46.56-.42 1.09.11 2.19.14 3.28.21.23.01.51-.09.58.35.13-.56.53-.37.79-.38.52-.02 1.03-.02 1.56-.02.36.01.73.01 1.11.01-.04.5.29 1 .03 1.53-.02.05-.03.15 0 .18.4.51.21 1.14.35 1.7.09.36.1.74.15 1.14-.09-.01-.17-.02-.29-.03.01.11-.01.24.04.28.55.46.42 1.16.59 1.74.14.51.19 1.07.15 1.6-.04.49.14.92.19 1.38.11.89.24 1.77.37 2.66.2 1.37.41 2.74.61 4.11.09.7.17 1.39.26 2.09.03.19.07.39.1.58.22 1.14.45 2.28.67 3.42.06.27-.05.41-.32.38-.4-.04-.8-.11-1.22-.18v.02c-.78-.02-1.55-.05-2.32-.05-.86 0-1-.04-1.01-1.04.11-.04.2-.08.3-.11-.1-.12-.19-.24-.3-.37.12-.05.25-.1.48-.18-.22-.05-.35-.08-.47-.11-.08-.53-.15-1.07-.26-1.61-.02-.11-.17-.29-.27-.3-.91-.04-1.82-.07-2.74-.07-.14 0-.34.03-.3.33.02.21-.01.53-.39.53-.08 0-.16.06-.22.11-.01.01.02.11.05.15.32.37.34.98.04 1.33.2.16.31 1.01.14 1.17-.07.06-.2.09-.31.09zm2.92-7.31c.64 0 .77-.15.7-.78l-.03-.18c-.16-1.09-.32-2.17-.47-3.25-.12-.83-.22-1.67-.34-2.5-.02-.13-.1-.25-.18-.46-.31.88-.58 1.65-.84 2.42-.09.3-.15.61-.2.92-.05.35-.07.7-.12 1.05-.1.78-.22 1.54-.31 2.32-.05.41.04.5.45.5.44 0 .89-.03 1.34-.04z"/>
    <path class="st3" d="M29.76 40.68c.07.63-.06.78-.7.78-.45.01-.9.04-1.34.04-.41 0-.5-.09-.45-.5.09-.78.21-1.54.31-2.32.05-.35.07-.7.12-1.05.05-.31.11-.62.2-.92.26-.77.53-1.54.84-2.42.08.21.16.33.18.46.12.83.22 1.67.34 2.5.15 1.08.31 2.16.47 3.25l.03.18z"/>
    <path class="st4" d="M7.88 42.51c.26.1.76-.12.76.32.01.45.18 1.11-.73 1.09l.09.15c.12 0 .26.04.36 0 .24-.11.32-.04.31.2-.04 1.18-.07 2.36-.14 3.54-.02.48-.21.61-.69.59-.47-.03-.94-.11-1.4-.13-.71-.02-1.41-.04-2.12-.01-.33.01-.43-.12-.43-.42.02-1.09.05-2.19.06-3.28 0-.48-.06-.97-.07-1.45-.02-1.29-.02-2.59-.04-3.88-.02-1.38-.07-2.75-.07-4.12 0-.76.1-1.51.11-2.27.01-.69-.04-1.38-.05-2.08-.02-1.5-.04-3.01-.07-4.52 0-.3.1-.4.41-.39 1.06.03 2.13.03 3.2.05.24 0 .48.04.71.11.09.03.2.18.21.29.06.49.11.99.11 1.48 0 .91-.07 1.82-.07 2.73 0 .68.08 1.36.09 2.04.01.67-.03 1.33-.04 2 0 .15.04.29.07.44.03 0 .06.01.1.01.05-.08.12-.15.16-.24.6-1.31 1.19-2.61 1.78-3.92.07-.14.14-.29.21-.43.3-.57.3-.57.95-.58-.17-.1-.34-.2-.57-.34.34-.63.69-1.28 1.05-1.91.05-.09.23-.08.32-.15.19-.14.28-.29-.09-.34.14-.34.27-.64.42-.98.19.1.33.17.39.2.21-.04.34-.09.47-.09.5.01.99.03 1.48.05.44.01.88.03 1.32.08.08.01.21.22.2.32-.04.32-.13.65-.22.97-.15.57-.32 1.14-.5 1.72-.03.12-.1.24-.16.39-.12-.08-.2-.14-.32-.23-.06.07-.19.18-.19.21.09.14.22.25.33.37.05 0 .1 0 .14-.01-.34.81-.68 1.62-1.01 2.43-.16.41-.27.84-.45 1.24-.2.46-.23 1.01-.7 1.32-.02.02-.03.06-.03.09.03.42-.17.75-.34 1.11-.08.17-.06.42-.01.61.09.32 0 .72.37.95.04.03-.02.2 0 .29.09.31.2.62.31.92.13.39.26.76.38 1.15.03.07-.02.15-.02.23 0 .08-.01.2.03.23.29.25.37.58.46.92.06.23.25.41.35.63.54 1.15 1.08 2.3 1.59 3.47.14.33.18.7.28 1.05.07.23.13.46.25.67.25.46.16.74-.36.81-.44.07-.89.04-1.34.05l-1.63.03c-.35 0-.7-.02-1.05-.05-.07 0-.15-.1-.2-.17-.51-.66-.58-1.46-.73-2.23-.03-.13-.04-.28-.11-.38-.4-.53-.46-1.19-.66-1.79-.05-.16-.13-.31-.21-.45-.43-.78-.87-1.55-1.3-2.33-.21-.38-.39-.77-.6-1.16-.05-.1-.13-.19-.2-.28-.04 0-.08.01-.12.01 0 .61.02 1.21 0 1.81-.01.3-.17.59.03.88-.3.09-.57.17-.83.26.01.03.01.06.01.1z"/>
    <path class="st3" d="M3.95 44.56c-.01 1.09-.04 2.19-.06 3.28 0 .3.1.43.43.42.71-.03 1.41-.01 2.12.01.46.02.93.1 1.4.13.48.02.67-.11.69-.59.07-1.18.1-2.36.14-3.54.01-.24-.07-.31-.31-.2-.1.04-.24 0-.36 0l-.09-.15c.91.02.74-.64.73-1.09 0-.44-.5-.22-.76-.32 0-.04 0-.07-.01-.1.26-.09.53-.17.83-.26-.2-.29-.04-.58-.03-.88.02-.6 0-1.2 0-1.81.04 0 .08-.01.12-.01.07.09.15.18.2.28.21.39.39.78.6 1.16.43.78.87 1.55 1.3 2.33.08.14.16.29.21.45.2.6.26 1.26.66 1.79.07.1.08.25.11.38.15.77.22 1.57.73 2.23.05.07.13.17.2.17.35.03.7.05 1.05.05l1.63-.03c.45-.01.9.02 1.34-.05.52-.07.61-.35.36-.81-.12-.21-.18-.44-.25-.67-.1-.35-.14-.72-.28-1.05-.51-1.17-1.05-2.32-1.59-3.47-.1-.22-.29-.4-.35-.63-.09-.34-.17-.67-.46-.92-.04-.03-.03-.15-.03-.23 0-.08.05-.16.02-.23-.12-.39-.25-.76-.38-1.15-.11-.3-.22-.61-.31-.92-.02-.09.04-.26 0-.29-.37-.23-.28-.63-.37-.95-.05-.19-.07-.44.01-.61.17-.36.37-.69.34-1.11 0-.03.01-.07.03-.09.47-.31.5-.86.7-1.32.18-.4.29-.83.45-1.24.33-.81.67-1.62 1.01-2.43-.04.01-.09.01-.14.01-.11-.12-.24-.23-.33-.37 0-.03.13-.14.19-.21.12.09.2.15.32.23.06-.15.13-.27.16-.39.18-.58.35-1.15.5-1.72.09-.32.18-.65.22-.97.01-.1-.12-.31-.2-.32-.44-.05-.88-.07-1.32-.08-.49-.02-.98-.04-1.48-.05-.13 0-.26.05-.47.09-.06-.03-.2-.1-.39-.2-.15.34-.28.64-.42.98.37.05.28.2.09.34-.09.07-.27.06-.32.15-.36.63-.71 1.28-1.05 1.91.23.14.4.24.57.34-.65.01-.65.01-.95.58-.07.14-.14.29-.21.43-.59 1.31-1.18 2.61-1.78 3.92-.04.09-.11.16-.16.24-.04 0-.07-.01-.1-.01-.03-.15-.07-.29-.07-.44.01-.67.05-1.33.04-2-.01-.68-.09-1.36-.09-2.04 0-.91.07-1.82.07-2.73 0-.49-.05-.99-.11-1.48-.01-.11-.12-.26-.21-.29-.23-.07-.47-.11-.71-.11-1.07-.02-2.14-.02-3.2-.05-.31-.01-.41.09-.41.39.03 1.51.05 3.02.07 4.52.01.7.06 1.39.05 2.08-.01.76-.11 1.51-.11 2.27 0 1.37.05 2.74.07 4.12.02 1.29.02 2.59.04 3.88.01.48.07.97.07 1.45zM.48 24.08c.21-.28.55-.37.89-.26.1.04.22.01.34.02.13.01.25.04.38.04.21.02.43.06.63.01.41-.11.81-.36 1.22-.41.36-.04.69-.41 1.08-.11.04.04.23-.03.27-.1.15-.27.33-.22.45-.03.33.53.84.27 1.24.23.34-.03.67-.13 1.01-.06.08.02.17 0 .25.01.64.08 1.25-.38 1.9-.11.04.02.1-.01.14 0 .17.02.35.03.51.08.38.12.74.35 1.11.36.51.03 1.03-.1 1.54-.18.53-.07 1.06-.21 1.59-.23.41-.01.83.1 1.23.2.54.14.99-.27 1.53-.21.43.04.87-.13 1.31-.19.46-.05.86.01 1.03.55.03.09.25.18.39.18.34-.01.69-.15 1.01-.09.51.09.98 0 1.46-.1.21-.04.42-.16.64-.17.59-.01 1.18.02 1.77.05.57.02 1.14.06 1.7.09.08-.06.17-.17.25-.16.53.04 1.05.12 1.57.17.63.06 1.26.13 1.89.13h.14l-.02 2.5c-.53 0-1.04 0-1.56.02-.26.01-.66-.18-.79.38-.07-.44-.35-.34-.58-.35-1.09-.07-2.19-.1-3.28-.21-.4-.04-.52.11-.56.42-.06.48-.13.97-.11 1.45.04 1.47-.09 2.92-.26 4.37-.09.68-.21 1.37-.34 2.05-.08.4-.24.8-.29 1.21-.19 1.46-.34 2.92-.52 4.38-.16 1.3-.36 2.58-.53 3.87-.2 1.47-.38 2.95-.57 4.42-.04.28.03.42.34.4.41-.02.82-.06 1.23-.05 1.01.03 2.02.08 3.03.12.11 0 .24-.03.31-.09.17-.16.06-1.01-.14-1.17.3-.35.28-.96-.04-1.33-.03-.04-.06-.14-.05-.15.06-.05.14-.11.22-.11.38 0 .41-.32.39-.53-.04-.3.16-.33.3-.33.92 0 1.83.03 2.74.07.1.01.25.19.27.3.11.54.18 1.08.26 1.61.12.03.25.06.47.11-.23.08-.36.13-.48.18.11.13.2.25.3.37-.1.03-.19.07-.3.11.01 1 .15 1.04 1.01 1.04.77 0 1.54.03 2.32.05v-.02c.42.07.82.14 1.22.18l-.29 2.24c-.09 0-.18.02-.27.02-.6.04-1.19.1-1.79.15-.22.02-.45.04-.68.03-.1 0-.21-.12-.29-.1-.4.11-.79.27-1.2.38-.57.15-1.13.42-1.75.14-.13-.06-.37-.06-.48.03-.34.23-.71.17-1.06.15-.97-.04-1.93-.13-2.9-.13-1.3-.01-2.6.05-3.91.08-.07 0-.15.01-.24.02.02.1.02.17.04.24.15.6.15.66-.43.89-.38.15-.79.23-1.19.32-.3.07-.61.12-.92.17-.23.04-.53.17-.7.07-.37-.2-.71-.03-1.06-.05-.8-.04-1.59.06-2.4-.08-.67-.12-1.39.01-2.08.02-.1.01-.2.05-.29.02-.72-.2-1.44-.06-2.17-.06-.09 0-.18-.05-.27-.07-.13-.04-.27-.1-.4-.11-.67-.01-1.34 0-2.04 0-.08.22-.2.22-.29.06-.12.05-.29.15-.32.12-.3-.3-.61-.18-.93-.08-.07.02-.17-.02-.26-.04-.13-.04-.26-.12-.39-.12-.33 0-.72.15-.99.03-.55-.25-1.13.16-1.64-.18-.37.18-.42-.14-.46-.34-.07-.3-.07-.62-.06-.93.02-.66.1-1.32.07-1.97-.01-.27-.09-.5.07-.76.08-.14.03-.37.03-.55 0-.54-.07-1.09 0-1.62.12-.81.12-1.61-.01-2.41-.04-.23-.12-.45-.18-.66-.09-.05-.17-.11-.26-.16.09-.06.17-.12.25-.18.09-.08.17-.16.2-.19-.06-.46-.11-.85-.15-1.25-.02-.21-.06-.42-.06-.64 0-.27.08-.56.04-.82-.08-.6-.09-1.18.08-1.76.02-.08-.03-.19-.05-.28-.05-.46-.11-.91-.16-1.37-.02-.22-.05-.45-.05-.67 0-.17.05-.34.04-.5-.01-.65-.04-1.3-.07-1.95 0-.15.06-.33 0-.45-.23-.44-.17-.91-.1-1.35.04-.28 0-.42-.27-.47v-.3c.05-.04.15-.09.16-.14 0-.52-.01-1.05 0-1.57 0-.2.07-.4.06-.6-.01-.09-.14-.17-.22-.25v-.29c.07-.01.15-.01.15-.01 0-.25-.07-.48.02-.64.2-.38.16-.76.09-1.15-.17-.92-.21-1.85-.1-2.78.01-.04.04-.09.07-.13z"/>
  </g>
  <path class="st4" d="M22.75 71.77c.19 0 .37-.14 1.52-1.15l.42.05.37.81c-2.01 2.17-3.12 3-4.02 3-.72 0-1.09-.37-1.09-1.09 0-.6 2.1-13.03 2.1-13.81 0-.58-.25-.83-.88-.83h-.81l.21-1.36c1.76 0 4.46-.21 4.46-.21l.28.37s-1.99 9.38-2.63 14.14l.07.08zM34.33 69.53C33.15 72 32 73.62 30.86 74.45c-1.71 0-2.73-.85-2.73-2.19 0-1.27 1.52-5.31 1.52-6.38 0-.55-.25-.79-.88-.79H28l.23-1.36c1.71 0 4.41-.21 4.41-.21l.28.37s-1.99 6.01-1.99 7.09c0 .46.16.67.53.67.72 0 2.22-2.43 3.65-5.89l.32-2.13.35-.18 1.89.14.3.35s-1.09 4.09-1.64 7.74l.09.09c.18 0 .28-.09 1.52-1.15l.39.05.37.81c-2.24 2.33-3.14 3-4.02 3-.67 0-.99-.3-.99-.88 0-.51.62-3.17.83-4.04l-.19-.03zm2.98-10.4s-2.22 1.39-4.37 2.98l-.35-.09-.69-.9c1.92-1.85 3.88-3.95 3.88-3.95l.3.02 1.25 1.62-.02.32zM49.69 71.77c.16 0 .19-.02 1.52-1.15l.39.05.37.81c-2.22 2.31-3.14 3-4.02 3-.67 0-.99-.3-.99-.88 0-.39.55-2.89.79-3.86l-.19-.02c-1.36 2.47-2.49 3.88-3.72 4.76-1.66 0-2.63-1.25-2.63-3.37 0-3.72 2.86-7.67 5.57-7.67l1.62.37.55-4.07c.09-.72-.16-.99-.85-.99h-.81l.21-1.36c1.73 0 4.46-.21 4.46-.21l.28.37s-1.89 9.38-2.63 14.14l.08.08zm-1.62-5.84c-.39-.23-1.29-.67-2.01-.67-.97 0-1.99 2.31-1.99 4.55 0 1.13.23 1.96.51 1.96.7 0 2.31-2.72 3.49-5.84zM58.01 71.77c.19 0 .37-.14 1.53-1.15l.39.05.39.81c-2.01 2.17-3.14 3-4.02 3-.76 0-1.09-.39-1.09-1.16 0 0 1.11-6.61 1.11-7.35 0-.62-.25-.88-.88-.88h-.81l.23-1.36c1.71 0 4.41-.21 4.41-.21l.28.37s-1.09 3.88-1.64 7.79l.1.09zm-1.2-12.15c0-1.2.83-2.08 2.06-2.08.85 0 1.32.53 1.32 1.36 0 1.22-.83 2.13-2.01 2.13-.91 0-1.37-.6-1.37-1.41zM65.73 69.72c0 1.57.53 2.5 1.36 2.5.79 0 1.62-.72 2.15-1.87l.39.05.76.95c-.81 1.78-2.66 3.14-4.25 3.14-1.96 0-3.19-1.52-3.19-3.97 0-3.81 2.75-7.23 5.82-7.23.86 0 1.71.18 2.24.51l.09.35-.97 2.22-.65.05c-.44-.74-.92-1.08-1.53-1.08-1.16-.04-2.22 2.02-2.22 4.38zM81.71 71.77c.19 0 .42-.18 1.53-1.15l.39.05.37.8c-2.17 2.29-3.14 3-4.02 3-.67 0-.99-.3-.99-.88 0-.44.55-2.93.79-3.86l-.18-.02c-1.39 2.5-2.5 3.9-3.72 4.76-1.66 0-2.63-1.25-2.63-3.37 0-3.72 2.86-7.67 5.57-7.67l2.01.42.16-.51.25-.16 1.87.32.18.39s-1.11 4.13-1.66 7.79l.08.09zm-1.59-5.84c-.69-.42-1.46-.67-2.03-.67-.97 0-1.99 2.31-1.99 4.55 0 1.13.23 1.96.51 1.96.69 0 2.35-2.77 3.51-5.84z"/>
</svg>