<svg xmlns="http://www.w3.org/2000/svg" xmlns:xlink="http://www.w3.org/1999/xlink" overflow="visible" viewBox="0 0 428.08 493.45"><style>.st1{fill:#2f5627}.st2{fill:#c24f06}.st3{fill:#2f855a}.st4{fill:#702459}.st6{opacity:.1;clip-path:url(#SVGID_2_);fill:#cca42c}.st8{fill:#fff}</style><defs><path id="SVGID_1_" d="M420.75 337.82V155.63c0-17.48-9.33-33.63-24.46-42.37L238.5 22.16a48.932 48.932 0 00-48.93 0l-157.78 91.1a48.937 48.937 0 00-24.46 42.37v182.19c0 17.48 9.33 33.63 24.46 42.37l157.78 91.1a48.932 48.932 0 0048.93 0l157.78-91.1a48.905 48.905 0 0024.47-42.37z"/></defs><clipPath id="SVGID_2_"><use xlink:href="#SVGID_1_" overflow="visible"/></clipPath><g id="XMLID_1_" clip-path="url(#SVGID_2_)"><path class="st1" d="M427.83 122.9l-.33.59-1.02-.59zM427.33 370.05l.5.86h-1.97z"/><path class="st2" d="M427.5 123.49v246.47l-.17.09-71.09-123.14z"/><path class="st2" d="M427.5 123.49l-71.26 123.42-35.3-61.16.2-.34h-.4l-36.09-62.51h141.83zM356.24 246.91l71.09 123.14-1.47.86H284.65l36.08-62.5h.41l-.2-.35zM214.19.34L426.48 122.9H284.65L214.04.61z"/><path class="st3" d="M425.86 370.91L214.04 493.2l70.61-122.29z"/><path class="st2" d="M320.94 185.75l35.3 61.16-35.3 61.15-35.31-61.15z"/><path class="st1" d="M321.14 185.41l-.2.34-.2-.34zM320.94 308.06l.2.35h-.41z"/><path class="st4" d="M320.74 185.41l.2.34-35.31 61.16-18.04-31.25-17.46-30.25z"/><path class="st2" d="M320.94 308.06l-.21.35h-70.6l17.46-30.25 18.04-31.25z"/><path class="st4" d="M284.65 122.9l36.09 62.51h-70.61l-36.09-62.51z"/><path class="st2" d="M320.73 308.41l-36.08 62.5h-70.61l36.09-62.5z"/><path class="st1" d="M267.59 215.66l18.04 31.25-18.04 31.25-17.46 30.25h-72.17l-17.47-30.25-18.04-31.25 18.04-31.25 17.47-30.25h72.17z"/><path class="st3" d="M284.65 370.91L214.04 493.2l-70.61-122.29h70.61z"/><path class="st4" d="M214.04.61l70.61 122.29H143.43zM214.04 122.9l36.09 62.51h-72.17z"/><path class="st2" d="M250.13 308.41l-36.09 62.5-36.08-62.5h36.08z"/><path class="st4" d="M214.04.25l.15.09-.15.27-70.61 122.29H1.6zM214.04 122.9l-36.08 62.51h-70.62l36.09-62.51z"/><path class="st3" d="M177.96 308.41l36.08 62.5h-70.61l-36.08-62.5zM143.43 370.91l70.61 122.29L2.22 370.91zM160.49 278.16l17.47 30.25h-70.61l-.21-.35 35.31-61.15z"/><path fill="#cca42c" d="M177.96 185.41l-17.47 30.25-18.04 31.25-35.31-61.16.2-.34z"/><path class="st4" d="M143.43 122.9l-36.09 62.51h-.4l.2.34-35.3 61.16L.59 123.49l1.01-.59z"/><path class="st3" d="M143.43 370.91H2.22l-1.47-.86 71.09-123.14 35.3 61.15-.2.35h.41z"/><path class="st3" d="M142.45 246.91l-35.31 61.15-35.3-61.15 35.3-61.16z"/><path class="st1" d="M107.35 308.41h-.41l.2-.35zM107.34 185.41l-.2.34-.2-.34z"/><path class="st4" d="M.59 123.49l71.25 123.42L.75 370.05l-.16-.09z"/><path class="st1" d="M2.22 370.91H.25l.5-.86zM1.6 122.9l-1.01.59-.34-.59z"/></g><path class="st6" d="M415.28 348.5c6.22 10.78-1.56 24.25-14 24.25H212.66c-12.44 0-20.22-13.47-14-24.25l47.15-81.67 47.15-81.67c6.22-10.78 21.78-10.78 28 0l47.15 81.67 47.17 81.67z"/><path class="st6" d="M321.22 183.61c6.22 10.78-1.56 24.25-14 24.25H118.6c-12.44 0-20.22-13.47-14-24.25l47.15-81.67 47.15-81.67c6.22-10.78 21.78-10.78 28 0l47.15 81.67 47.17 81.67z"/><path class="st6" d="M230.01 348.5c6.22 10.78-1.56 24.25-14 24.25H27.39c-12.44 0-20.22-13.47-14-24.25l47.15-81.67 47.15-81.67c6.22-10.78 21.78-10.78 28 0l47.15 81.67 47.17 81.67z"/><path d="M104.6 201.26c-6.22-10.78 1.56-24.25 14-24.25h188.62c12.44 0 20.22 13.47 14 24.25l-47.15 81.67-47.15 81.67c-6.22 10.78-21.78 10.78-28 0l-47.15-81.67-47.17-81.67z" clip-path="url(#SVGID_2_)" fill="#cca42c"/><path class="st8" d="M214.04 480.82c-8.98 0-17.96-2.31-25.96-6.93L30.3 382.79c-16.01-9.25-25.96-26.48-25.96-44.97V155.63c0-18.49 9.95-35.72 25.96-44.97l157.78-91.1c16.02-9.25 35.91-9.25 51.93 0l157.78 91.1c16.01 9.25 25.96 26.48 25.96 44.97v182.19c0 18.49-9.95 35.72-25.96 44.97L240 473.89c-8 4.62-16.98 6.93-25.96 6.93zm0-462.19c-7.94 0-15.88 2.04-22.96 6.13L33.3 115.86c-14.17 8.18-22.96 23.42-22.96 39.77v182.19c0 16.36 8.8 31.6 22.96 39.77l157.78 91.1c14.16 8.18 31.76 8.18 45.93 0l157.78-91.1c14.16-8.18 22.96-23.42 22.96-39.77V155.63c0-16.36-8.8-31.6-22.96-39.77L237 24.76c-7.08-4.09-15.02-6.13-22.96-6.13z"/><g><path class="st8" d="M81.14 333.36c7.13 4.78 14.84 6.28 23.13 4.48s14.51-6.32 18.69-13.55c4.18-7.24 5.48-14.5 3.9-21.77-1.58-7.27-5.68-13.48-12.3-18.61-6.63-5.12-14.41-6.72-23.37-4.78-8.97 1.95-15.46 6.58-19.5 13.9-4.04 7.33-5.26 14.68-3.65 22.07 1.6 7.39 5.96 13.47 13.1 18.26zM240.41 228.92c47.54 11.7 81.97 21.24 103.3 28.63 10.86 3.58 17.77 7.92 20.71 13.01 2.94 5.09 2.41 13.4-1.6 24.91-4 11.51-8.55 18.74-13.65 21.68-5.1 2.95-13.66 2.3-25.7-1.93l-109.39-37.1 33.78 58.42c2.77 4.79 4.64 8.37 5.61 10.75.98 2.37 1.52 5.51 1.66 9.43.31 7.01-5.92 14.21-18.7 21.6-13.98 8.08-24.37 9.03-31.15 2.82-3.04-2.5-6.59-7.25-10.63-14.24l-96.3-166.58c-2.66-4.59-4.49-8.13-5.53-10.6-1.02-2.47-1.61-5.67-1.74-9.59-.33-7.01 5.91-14.21 18.69-21.6 13.98-8.08 24.41-9.18 31.28-3.3 2.96 2.82 6.46 7.73 10.5 14.72l33.08 57.23c9.5-46.27 16.98-84.03 22.44-113.31 2.25-12.23 5.98-19.84 11.18-22.85 5.19-3 13.78-3.37 25.75-1.09 11.97 2.27 19.44 5.95 22.38 11.04 2.95 5.1 3.44 12.87 1.49 23.33-3.84 20.08-11.2 48.85-22.06 86.31l-5.4 18.31z"/></g></svg>